# xmcd
#
# Track frame offsets: 
#        150
#        14700
#        25264
#        38178
#        47656
#        67213
#        83338
#        101016
#        119136
#        133115
#        149130
#        165010
#
# Disc length: 2458 seconds
#
# Revision: 0
# Processed by: cddbd v1.5.2PL0 Copyright (c) Steve Scherf et al.
# Submitted via: ExactAudioCopy v1.0b1
#
DISCID=aa09980c
DTITLE=Willie Nelson - Willie Nelson - The Box Set Series - CD1
DYEAR=1900
DGENRE=Country
TTITLE0=Sweet Memories
TTITLE1=Blue Eyes Crying In The Rain
TTITLE2=Remember Me
TTITLE3=If You've Got The Money I've Got The TIme
TTITLE4=Georgia On My Mind
TTITLE5=Blue Skies
TTITLE6=All Of Me
TTITLE7=Help Me Make It Through The Night
TTITLE8=My Heroes Have Always Been Cowboys
TTITLE9=Always On My Mind
TTITLE10=Let It Be Me
TTITLE11=Last Thing I Needed The First Thing This Morning
EXTD=
EXTT0=
EXTT1=
EXTT2=
EXTT3=
EXTT4=
EXTT5=
EXTT6=
EXTT7=
EXTT8=
EXTT9=
EXTT10=
EXTT11=
PLAYORDER=
